<svg viewBox="0 0 2612 1894" xmlns="http://www.w3.org/2000/svg" xml:space="preserve" style="fill-rule:evenodd;clip-rule:evenodd;stroke-linejoin:round;stroke-miterlimit:2"><g fill="#d2d5da"><path d="M2780.88 1918.83c-3.86 0-7 3.13-7 7v12.5c0 3.87 3.14 7 7 7 3.87 0 7-3.13 7-7v-12.5c0-3.87-3.13-7-7-7ZM2499.55 2311.26a97.791 97.791 0 0 1-20.06 12.98c-3.47 1.69-4.93 5.87-3.24 9.35a6.997 6.997 0 0 0 9.35 3.25c8.2-3.98 15.92-8.97 22.93-14.84a7.004 7.004 0 0 0 .88-9.86c-2.48-2.96-6.9-3.35-9.86-.88ZM2456.89 2331.94a98.705 98.705 0 0 1-19.97 2.04h-4.12c-3.87 0-7 3.13-7 7 0 3.86 3.13 7 7 7h4.12c7.68 0 15.36-.79 22.82-2.34 3.78-.78 6.22-4.49 5.43-8.27a6.996 6.996 0 0 0-8.28-5.43ZM2536.62 2269.08c-3.58-1.45-7.67.28-9.12 3.86a97.283 97.283 0 0 1-11.62 20.88c-2.28 3.12-1.59 7.5 1.53 9.78a6.99 6.99 0 0 0 9.78-1.53c5.39-7.39 9.87-15.42 13.29-23.87 1.45-3.58-.28-7.66-3.86-9.12ZM2304.44 2333.98h-25.67c-3.87 0-7 3.13-7 7 0 3.86 3.13 7 7 7h25.67c3.87 0 7-3.14 7-7 0-3.87-3.13-7-7-7ZM2253.1 2333.98h-25.67c-3.87 0-7 3.13-7 7 0 3.86 3.13 7 7 7h25.67c3.86 0 7-3.14 7-7 0-3.87-3.14-7-7-7ZM2355.79 2333.98h-25.68c-3.86 0-7 3.13-7 7 0 3.86 3.14 7 7 7h25.68c3.86 0 7-3.14 7-7 0-3.87-3.14-7-7-7ZM2542.92 2218.27a6.998 6.998 0 0 0-7.69 6.24 112.5 112.5 0 0 0-.62 11.78c0 4.54-.31 9.11-.93 13.58-.54 3.83 2.14 7.36 5.97 7.9.32.04.65.06.97.06 3.44 0 6.44-2.53 6.92-6.03.71-5.11 1.07-10.32 1.07-15.51 0-3.45.18-6.92.54-10.32.4-3.85-2.39-7.29-6.23-7.7ZM2407.13 2333.98h-25.67c-3.87 0-7 3.13-7 7 0 3.86 3.13 7 7 7h25.67c3.87 0 7-3.14 7-7 0-3.87-3.13-7-7-7ZM2739.17 2101.59a97.935 97.935 0 0 1-20 13.07c-3.47 1.7-4.9 5.89-3.2 9.37a7.01 7.01 0 0 0 6.29 3.91c1.04 0 2.09-.23 3.08-.71 8.18-4.02 15.87-9.04 22.86-14.94 2.95-2.49 3.32-6.91.83-9.86a6.994 6.994 0 0 0-9.86-.84ZM2776.04 2059.24c-3.58-1.44-7.66.31-9.1 3.9a97.283 97.283 0 0 1-11.52 20.93c-2.26 3.13-1.56 7.51 1.57 9.77a7.005 7.005 0 0 0 9.78-1.57 111.4 111.4 0 0 0 13.17-23.93 6.995 6.995 0 0 0-3.9-9.1ZM2563.57 2171.74a6.997 6.997 0 0 0-9.72 1.86c-5.14 7.56-9.33 15.73-12.46 24.29a6.997 6.997 0 0 0 6.57 9.41c2.85 0 5.54-1.76 6.57-4.6a97.812 97.812 0 0 1 10.9-21.24 6.997 6.997 0 0 0-1.86-9.72ZM2780.88 1957c-3.86 0-7 3.13-7 7v25.67c0 3.87 3.14 7 7 7 3.87 0 7-3.13 7-7V1964c0-3.87-3.13-7-7-7ZM2780.88 2008.34c-3.86 0-7 3.14-7 7v11.57c0 4.39-.29 8.8-.87 13.13-.52 3.83 2.17 7.35 6.01 7.87a6.99 6.99 0 0 0 7.86-6.01c.67-4.94 1-9.98 1-14.99v-11.57c0-3.86-3.13-7-7-7ZM2594.25 2137.44c-8.07 4.26-15.61 9.51-22.42 15.61-2.88 2.58-3.13 7-.55 9.88a6.98 6.98 0 0 0 5.22 2.33c1.66 0 3.33-.59 4.67-1.78a97.836 97.836 0 0 1 19.61-13.65 6.997 6.997 0 0 0 2.92-9.46 6.995 6.995 0 0 0-9.45-2.93ZM2696.61 2122.46a98.249 98.249 0 0 1-20.42 2.14h-3.63c-3.87 0-7 3.13-7 7 0 3.86 3.13 7 7 7h3.63c7.86 0 15.71-.83 23.33-2.45 3.78-.8 6.19-4.52 5.39-8.3a7.004 7.004 0 0 0-8.3-5.39ZM2646.89 2124.6h-.59c-8.96 0-17.87 1.06-26.5 3.16-3.75.91-6.06 4.7-5.14 8.46a6.995 6.995 0 0 0 8.46 5.14 98.393 98.393 0 0 1 23.18-2.76h.59c3.86 0 7-3.14 7-7 0-3.87-3.14-7-7-7ZM2201.58 2333.98h-8.23v-25.22l-32.21 32.22 32.21 32.21v-25.21h8.23c3.87 0 7-3.14 7-7 0-3.87-3.13-7-7-7Z" style="fill-rule:nonzero" transform="matrix(-4.16667 0 0 4.16667 11616.18 -7995.128)"/></g></svg>